//Testing hevc  on all types of video
ffmpeg -i INFILE -threads 0 -c:v libx265 -preset  veryfast x265-params crf=28 -c:a aac -strict -2 -vbr 4 transcode/

#works
ffmpeg -i 2012-04-27_21-21-12_738.mp4 -threads 0 -c:v libx265 -preset medium -x265-params crf=28 -c:a aac -strict experimental -b:a 128k transcode/2012-04-27_21-21-12_738.mp4 
#error 
ffmpeg -i 2012-04-27_21-21-12_738.mp4 -threads 0 -c:v libx265 -preset  veryfast x265-params crf=28 -c:a aac -strict -2 -vbr 4 transcode/2012-04-27_21-21-12_738.mp4
Output #0, mp4, to 'transcode/2012-04-27_21-21-12_738.mp4':
  Metadata:
    major_brand     : 3gp4
    minor_version   : 512
    compatible_brands: 3gp4
    encoder         : Lavf56.36.100
    Stream #0:0(eng): Video: hevc (libx265) ([35][0][0][0] / 0x0023), yuv420p, 1280x720, q=2-31, 60 fps, 15360 tbn, 60 tbc (default)
    Metadata:
      handler_name    : VideoHandler
      encoder         : Lavc56.41.100 libx265
    Stream #0:1(eng): Audio: aac ([64][0][0][0] / 0x0040), 44100 Hz, stereo, fltp, 128 kb/s (default)
    Metadata:
      handler_name    : SoundHandler
      encoder         : Lavc56.41.100 aac
Stream mapping:
  Stream #0:1 -> #0:0 (h264 (native) -> hevc (libx265))
  Stream #0:0 -> #0:1 (aac (native) -> aac (native))



ffmpeg -i 2012-05-09_20-27-45_307_2.mp4 -threads 0 -c:v libx265 -preset  veryfast x265-params crf=28 -c:a aac -strict -2 -vbr 4 transcode/2012-05-09_20-27-45_307_2.mp4
ffmpeg -i 2012-05-09_20-27-45_307.mp4 -threads 0 -c:v libx265 -preset  veryfast x265-params crf=28 -c:a aac -strict -2 -vbr 4 transcode/2012-05-09_20-27-45_307.mp4
ffmpeg -i Blade.Runner.1982.Final.Cut.1080p.BluRay.x264.anoXmous_.mp4 -threads 0 -c:v libx265 -preset  veryfast x265-params crf=28 -c:a aac -strict -2 -vbr 4 transcode/Blade.Runner.1982.Final.Cut.1080p.BluRay.x264.anoXmous_.mp4
ffmpeg -i IMG_0027.MOV -threads 0 -c:v libx265 -preset  veryfast x265-params crf=28 -c:a aac -strict -2 -vbr 4 transcode/IMG_0027.MOV
ffmpeg -i MVI_1716.MOV -threads 0 -c:v libx265 -preset  veryfast x265-params crf=28 -c:a aac -strict -2 -vbr 4 transcode/MVI_1716.MOV
ffmpeg -i VID_20141115_181326.mp4 -threads 0 -c:v libx265 -preset  veryfast x265-params crf=28 -c:a aac -strict -2 -vbr 4 transcode/VID_20141115_181326.mp4
ffmpeg -i Video1.WMV -threads 0 -c:v libx265 -preset  veryfast x265-params crf=28 -c:a aac -strict -2 -vbr 4 transcode/Video1.WMV
ffmpeg -i bird.avi -threads 0 -c:v libx265 -preset  veryfast x265-params crf=28 -c:a aac -strict -2 -vbr 4 transcode/bird.avi
ffmpeg -i sample.3gp -threads 0 -c:v libx265 -preset  veryfast x265-params crf=28 -c:a aac -strict -2 -vbr 4 transcode/sample.3gp
ffmpeg -i sample_3GPP2.3g2 -threads 0 -c:v libx265 -preset  veryfast x265-params crf=28 -c:a aac -strict -2 -vbr 4 transcode/sample_3GPP2.3g2
ffmpeg -i sample_iPod.m4v -threads 0 -c:v libx265 -preset  veryfast x265-params crf=28 -c:a aac -strict -2 -vbr 4 transcode/sample_iPod.m4v
ffmpeg -i sample_iTunes.mov -threads 0 -c:v libx265 -preset  veryfast x265-params crf=28 -c:a aac -strict -2 -vbr 4 transcode/sample_iTunes.mov
ffmpeg -i sample_mpeg2.m2v -threads 0 -c:v libx265 -preset  veryfast x265-params crf=28 -c:a aac -strict -2 -vbr 4 transcode/sample_mpeg2.m2v
ffmpeg -i sample_mpeg4.mp4 -threads 0 -c:v libx265 -preset  veryfast x265-params crf=28 -c:a aac -strict -2 -vbr 4 transcode/sample_mpeg4.mp4
ffmpeg -i sample_sorenson.mov -threads 0 -c:v libx265 -preset  veryfast x265-params crf=28 -c:a aac -strict -2 -vbr 4 transcode/sample_sorenson.mov


//4k 
ffmpeg -i GOPR0044.MP4 -threads 0 -c:v libx265 -preset  veryfast x265-params crf=28 -c:a aac -strict -2 -vbr 4 transcode/GOPR0044.MP4
4K_Bridge_View_MPEG-4_QuickTime.vid
ffmpeg -i INFILE -threads 0 -c:v libx265 -preset  veryfast x265-params crf=28 -c:a aac -strict -2 -vbr 4 transcode/OUTFILE
4k_Honey_Bees_96fps.mp4
ffmpeg -i INFILE -threads 0 -c:v libx265 -preset  veryfast x265-params crf=28 -c:a aac -strict -2 -vbr 4 transcode/OUTFILE
4k_SKYFALLTrailer.mp4
ffmpeg -i INFILE -threads 0 -c:v libx265 -preset  veryfast x265-params crf=28 -c:a aac -strict -2 -vbr 4 transcode/OUTFILE
4k_fireworks_2160p_Club-2013-Taipei_2.mp4
ffmpeg -i INFILE -threads 0 -c:v libx265 -preset  veryfast x265-params crf=28 -c:a aac -strict -2 -vbr 4 transcode/OUTFILE
4k_fireworks_2160p_Club-2013-Taipei.mp4
ffmpeg -i INFILE -threads 0 -c:v libx265 -preset  veryfast x265-params crf=28 -c:a aac -strict -2 -vbr 4 transcode/OUTFILE
